<svg width="21" height="20" viewBox="0 0 21 20" fill="none" xmlns="http://www.w3.org/2000/svg">
<path d="M20.1206 10.2279C20.1206 9.49818 20.0564 8.79989 19.9371 8.12842H10.7047V11.9754L16.0218 11.9766C15.8061 13.2566 15.1121 14.3477 14.0487 15.0752V17.5711H17.2137C19.0618 15.8329 20.1206 13.2636 20.1206 10.2279Z" fill="#4285F4"/>
<path d="M14.05 15.0752C13.169 15.679 12.0344 16.0323 10.7072 16.0323C8.14329 16.0323 5.96828 14.2766 5.18937 11.9102H1.92456V14.4842C3.54205 17.7459 6.86651 19.9842 10.7072 19.9842C13.3617 19.9842 15.5918 19.0971 17.215 17.5699L14.05 15.0752Z" fill="#34A853"/>
<path d="M4.88182 10.0005C4.88182 9.33606 4.9908 8.69373 5.18926 8.08986V5.51587H1.92445C1.25566 6.86465 0.879395 8.38713 0.879395 10.0005C0.879395 11.6139 1.25681 13.1364 1.92445 14.4852L5.18926 11.9112C4.9908 11.3074 4.88182 10.665 4.88182 10.0005Z" fill="#FABB05"/>
<path d="M10.7072 3.96779C12.156 3.96779 13.4535 4.47489 14.4779 5.46579L17.2827 2.61784C15.5792 1.0056 13.3583 0.0158691 10.7072 0.0158691C6.86765 0.0158691 3.54205 2.25412 1.92456 5.51591L5.18937 8.08991C5.96828 5.72342 8.14329 3.96779 10.7072 3.96779Z" fill="#E94235"/>
</svg>
